<svg width="102" height="54" viewBox="0 0 102 54" fill="none" xmlns="http://www.w3.org/2000/svg">
<path d="M4 17.6979C10.8472 16.3285 16.2494 11.088 19.4444 4.6979C21.2241 1.13865 19.5665 12.3066 19.5 13.1979C19.0246 19.5686 19.2009 26.9161 17.7778 33.1423C16.8985 36.9891 18.5486 28.5365 19 27.2535C20.359 23.3909 22.8968 19.4352 25.5 16.2535C29.3313 11.5707 36.8272 8.60373 42.5556 11.9201C48.1777 15.1751 31.1206 24.0988 29.1667 25.1979C25.7635 27.1122 40.0133 27.6972 41.1667 27.7535C45.3357 27.9568 47.1403 31.4072 47 35.4757C46.8668 39.3396 39.4609 42.0386 36.6667 43.0312C33.6008 44.1204 28.2257 44.662 34.5 46.7535C40.0355 48.5986 51.1132 51.9986 57 49.4757C60.5465 47.9558 62.6587 40.3873 63.9444 37.2535C65.6983 32.9784 66.2395 27.8833 68.5 23.8646C69.376 22.3073 70.9134 21.9112 71 19.9201C71.2567 14.0156 70.8098 31.8237 69.5 37.5868C69.3306 38.3322 68.1111 43.8874 68.1111 40.0312C68.1111 33.7039 72.2988 24.8292 75 19.1423C77.1758 14.5618 81.9244 10.4785 87 9.75346C99.7105 7.93767 100.376 29.3195 94.5556 36.1979C89.6229 42.0274 86.781 43.6979 79 43.6979C73.3855 43.6979 71.4763 44.3329 68 39.6979" stroke="black" stroke-width="7" stroke-linecap="round"/>
</svg>
